<svg width="158" height="164" viewBox="0 0 158 164" fill="none" xmlns="http://www.w3.org/2000/svg">
<path d="M95.5 38.5L89.5 41.5L83.5 35.5L78 38.5L64 29V13.5L61.5 1.5L78 15.5H85L92.5 23.5L93.2 27M95.5 38.5L93.2 27M95.5 38.5C95.73 39.679 95.9849 41.1983 96.2389 43M85.5 50.5L82 44.5H64L42.5 37L32 46V54.5L39.5 49.5L55 63.5H61.5L72.5 67.5L89.5 61M85.5 50.5L89.5 61M85.5 50.5L100 63.5L108.5 57.5L104 67.5M89.5 61L92.5 67.5L85 69L99 73.5M80 109H72.5L68 100H57.5L45 87.5H34.5L26 76L24.5 61L36 69L64 78L80 73.5L94.5 83.2496M80 109L72.5 100L76.5 94M80 109L87 108L89.2 104.5M78 146.5C72.4 154.5 64.6667 160.5 61.5 162.5M78 146.5L85 151L91 146.5M78 146.5L70 147.022M78 146.5L82 138M88 148.75L94.5 153.5H107L121.5 142.5H131L146 132L151.5 124L156 98.5L147 111L127 122.5H108.5L97.25 128.665M93.2 27L102.5 18.5H107M107 18.5L119 11V27L111 33H107L96.2389 43M107 18.5L100 2L91 21.9M96.2389 43C96.7708 46.7729 97.2988 55.6207 97.5872 61.3368L113 41.5H120.5L131.5 34L155 28L149 34L147 46L141.5 57.5H131L119 66L104 67.5M104 67.5L99 73.5M100.794 84.5L108.5 79.5L129 78L155 63.5L144 92L129 98.5L119 108L104.647 108.043M99 73.5V82.8219M87 127V118.5L93.9926 115.5M87 127L80 122.5M87 127L85 135M87 127L94.5 125.33M97.25 128.665L102.5 120L96.2389 114L93.9926 115.5M97.25 128.665L94.5 125.33M94.5 125.33L100.794 132L99 136.5M85 135L87 140.5H93.2M85 135L82 138M99 136.5L97.5872 140.5H93.2M99 136.5H104L107 145L97.5872 148L91 146.5M91 146.5L93.2 140.5M70 147.022L55 148L42.5 135L18 130.5L12.5 115.5L2 103L17 109L32 108L48.5 115.5L57.5 111L72.5 115.5L80 122.5M70 147.022L68.8261 141.726M76.5 135L68 138L68.8261 141.726M76.5 135L82 138M76.5 135L74.5 132L76.5 125.33M72.25 136.5L65.5 132V129.5M76.5 125.33L72.5 122.5L65.5 127V129.5M76.5 125.33L80 122.5M68.8261 141.726L61.5 142.5L55 135L60.5 129L65.5 129.5M85.5 96L89.2 104.5M85.5 96L76.5 94M85.5 96L90 94M89.2 104.5H96.2389M96.2389 104.5L100 96M96.2389 104.5L100.794 109L108.5 107.086L106 97.5L100 96M96.2389 104.5L93.9926 115.5M100 96L94.5 92L90 94M100 96L104 87.5L99 82.8219M100 96L111 89L117 97.5L116 102H108.5M76.5 94L74.5 83.2496L83.5 81.5L90 85.7998M90 94L88 87.5L97.5872 81.5L99 82.8219" stroke="white" stroke-width="3" stroke-linejoin="bevel"/>
</svg>
