<svg width="58" height="168" viewBox="0 0 58 168" fill="none" xmlns="http://www.w3.org/2000/svg">
<path d="M0.5 68.0001C10.4029 69.8334 35.2379 72.4001 55.3544 68.0001M55.3544 68.0001L55.5 58.0001L42.5 20.0001H13L1.5 58.0001V146M55.3544 68.0001L54.2184 146M1.5 146V161C10.1667 164.667 32.8 169.8 54 161L54.2184 146M1.5 146C9.3123 148.667 30.7932 152.4 54.2184 146M9.5 4.5001V20.0001H46V4.5001C39.8333 2.33343 23.9 -0.699905 9.5 4.5001Z" stroke="white" stroke-width="3"/>
<path d="M16.5 3.5L10 15M21.5 2.5L12.5 19.5M28 2L17.5 19.5M34 2.5L24.5 19.5M39.5 3.5L31 19.5M44.5 4L36.5 19.5M45.5 10L41 19.5" stroke="white" stroke-width="2"/>
</svg>
