<svg width="121" height="191" viewBox="0 0 121 191" fill="none" xmlns="http://www.w3.org/2000/svg">
<path d="M32.5 90.5L1.5 53.5V35.5H119V53.5L95 90.5M32.5 90.5H95M32.5 90.5H19V104V109.5M95 90.5H104V109.5M19 109.5V111.5H104V109.5M19 109.5L11 117V189H112V117L104 109.5M35 1L28 10L35 18L30 26M56.5 1L52 10.5L58 16.5L53.5 26M84.5 3.5L78.5 12.5L84.5 18L79.5 26" stroke="white" stroke-width="3" stroke-linejoin="bevel"/>
<path d="M37.5 90.5L19.5 112M46.5 90.5L30 112M53.5 90.5L38 112M61.5 90.5L47.5 112M71.5 90.5L57.5 112M80.5 90.5L68 112M89 90.5L77 112M98.5 90.5L86.5 112M104 96L95.5 112M19.5 103.5L29.5 90.5M34 89.5L30.5 79.5L43 74.5L54 83L51 89.5M21.5 76.5L22 73M37.5 76L36 69.5H22.5L22 73M22 73L17 63.5L25.5 58.5L35 64.5M31.5 69.5L37.5 61.5L44 62.7381M45.5 75.5L47 73L48 63.5L44 62.7381M48.5 65.5H58.5M52.5 81.5L61.5 76.5L60.5 65.5H58.5M62 72.5H68.5L72 79.5L69 85.5L65.5 90M23 59.5L17 54.5L11.5 55L8.5 62M28.5 59.5L31.5 54.5L39 53.5L45 56.5L44.6794 58.5M44 62.7381L44.6794 58.5M44.6794 58.5L53.5 56L60 62L58.5 65.5M57 59L60.5 55.5L70 56.5L73 64L71 66.9091M67.5 72L71 66.9091M72.5 61.5L77 57H81.5M71 66.9091L75.5 73L81 73.5L86.5 70L87 64L83.5 57H81.5M84 71L83 81.5L82 81.75M71 82.5L79 83.5L82 81.75M82 81.75L86 85L83.5 89.5M87.5 66.5L91.5 66.7517M83.2222 79.5L93.5 77L93.6239 74.5M90 78L97.5 84.5M93.6239 74.5L94 66.9091L91.5 66.7517M93.6239 74.5H105.5V65L97.5 61M97.5 61H94L91.5 66.7517M97.5 61L96.3235 58.5M81.5 57L85 53L93 54L96.3235 58.5M96.3235 58.5L102.5 54L107.5 55L112.5 63M2 50H81M89 50H119.5" stroke="white" stroke-width="2" stroke-linejoin="bevel"/>
</svg>
