<svg width="124" height="169" viewBox="0 0 124 169" fill="none" xmlns="http://www.w3.org/2000/svg">
<path d="M18 26L12 35L3 22.5L18 26Z" stroke="white" stroke-width="3" stroke-linejoin="bevel"/>
<path d="M12.2537 57.4237L17.048 67.1198L1.72266 68.6641L12.2537 57.4237Z" stroke="white" stroke-width="3" stroke-linejoin="bevel"/>
<path d="M68.0479 26L74.0479 35L83.0479 22.5L68.0479 26Z" stroke="white" stroke-width="3" stroke-linejoin="bevel"/>
<path d="M73.7941 57.4237L68.9999 67.1198L84.3252 68.6641L73.7941 57.4237Z" stroke="white" stroke-width="3" stroke-linejoin="bevel"/>
<path d="M47.6583 15.77L36.8422 15.8786L42.1055 1.40283L47.6583 15.77Z" stroke="white" stroke-width="3" stroke-linejoin="bevel"/>
<path d="M47.6583 78.5674L36.8422 78.4588L42.1055 92.9346L47.6583 78.5674Z" stroke="white" stroke-width="3" stroke-linejoin="bevel"/>
<path d="M55 24H29.5L18 46.5L29.5 70.5H57.5L68 46.5L55 24Z" stroke="white" stroke-width="3" stroke-linejoin="bevel"/>
<path d="M47 112.5L33 108.5L17.5 111.5L11 119.5V129M47 112.5L46 124.5L41.5 128L24 132.5L11 129M47 112.5L48 128L40.5 136L32 140.5L17.5 138.5L11 129M62.5741 138.5L62.5 138L72.5 128H79L83.5 131.553M62.5741 138.5L64.5 151.5L79 158.5L91.5 157.5L98.5 152L98.4722 151.5M62.5741 138.5L64.5 159.5L77 167L91 166.5L98.5 158.5L98.4722 151.5M98.4722 151.5L98 143L94.8333 140.5M78 127L82.5 114.5L98.5 106.5L115 108.5L122 119.5M122 119.5L109 134H93.5L83.5 131.553M122 119.5L120.5 130.5L112 139.5L94.8333 140.5M83.5 131.553L94.8333 140.5" stroke="white" stroke-width="3" stroke-linejoin="bevel"/>
<path d="M32.5 109L24 116.5L21 124.5L27.5 130L28 122L35 109M20 132.5L17.5 137.5M26 132.5L22.5 139M32.5 130L27.5 140M39.5 128.5L35.5 138.5M44.5 126L41.5 134M70.5 154.5L67 161M74.5 156.5L71.5 162.5M80 159L77 166M86 159L83 166M92.5 157.5L89.5 166M74.5 128.5L81 136M81 136L80 146.5L85.5 157M81 136L83 143.5L89.5 157M95.5 135L93.5 139M101 134L98 140M107.5 134L105 139M112.5 130L110 140M116 126.5V135M80 124.5L102.5 116.5L121 118L101 119.5L89 126.5L79.5 127L80 124.5Z" stroke="white" stroke-width="2"/>
</svg>
