<svg width="127" height="167" viewBox="0 0 127 167" fill="none" xmlns="http://www.w3.org/2000/svg">
<path d="M123 71L95.5418 78M123 71V144.5M123 71L116.312 35.5M123 71L100.088 42M110 2H16L1.5 54V74.5M110 2L110.659 5.5M110 2L100.088 42M93.5 164.887L1.5 154.5V144.5M93.5 164.887L94.5 165L123 154.5V144.5M93.5 164.887L93.7793 153M1.5 74.5L95.5418 78M1.5 74.5V144.5M95.5418 78L96 58.5L100.088 42M95.5418 78L93.7793 153M1.5 144.5L93.7793 153M93.7793 153L123 144.5M110.659 5.5L125.5 23.5L116.312 35.5M110.659 5.5L116.312 35.5" stroke="white" stroke-width="3" stroke-linejoin="bevel"/>
<path d="M112.5 16.5L104 26.5M113.5 22.5L101 37.5M116 30L104 45.5M116.5 40L107.5 51.5M118 47L111.5 55.5M119.5 55.5L115.5 60" stroke="white" stroke-width="2" stroke-linejoin="bevel"/>
</svg>
